<svg id="Layer_1" data-name="Layer 1" xmlns="http://www.w3.org/2000/svg" viewBox="0 0 100 100"><path d="M69.94,8.17c-1.19.34-1.8,1.9-.62,3.94,5.29,9.08,8,17.86,8.22,26.25,0,1.46-1.39,1.51-1.42,0-.2-7.92-3.43-16.35-8.64-25.09-1.27-2.14-2.9-3.53-5.15-2.23A2.24,2.24,0,0,0,62,14.35c5.59,7.79,7.43,17,7.9,26.5.08,1.46-1.7,1.57-1.77.1-.47-9.31-2.64-18-7.89-25.29-1.13-1.57-2.25-1.81-3.72-1-1.25.71-1.89,2.39-.67,4.26C60.65,26.35,62.33,33.64,63,43c.22,1.56-1.54,1.65-1.55.08-1-7.79-2.47-13.75-5.61-19.72a2,2,0,0,0-1.42-1.12c-1.45-.12-2.2.9-2.69,2a2.19,2.19,0,0,0,.39,2.06C56,32.5,56.49,40.2,56.3,47.21,55.83,64.69,57.63,71.38,59.67,75a41.69,41.69,0,0,0,3.23,4.48,14.53,14.53,0,0,1,2.62,6.33c.26,1.45.52,2.68.62,3.82.12,1.59.4,2.84,3.06,2.84H83.6c2,0,3.31-1.28,2.89-3.89l-1.61-10c-.21-1.31-.54-1.68-2-1.07A39.75,39.75,0,0,1,78,79c-1.42.38-1.85-.85-.46-1.33,6.12-2,12.08-6,13.75-12.1.84-3.07.94-6.6,2.39-10.48,2.22-5.89,4.24-14.46,4.31-18.11.07-4.17-3.73-3.73-5.3-1.16A22.75,22.75,0,0,0,90.46,42c-2,7.74-7,10.66-12.66,15.13C75.44,59,74,60.56,73.91,65.05c0,1.53-1.57,1.49-1.64,0-.22-4.91,1.59-7.55,4.17-9.61,2.37-1.88,5.2-3.53,8.28-7,1.06-1.18,1-2,.92-3.28-.44-18-5.91-27.42-10.4-34C73.87,9.12,72.15,7.55,69.94,8.17Z"/><path d="M29.68,8.17c1.19.34,1.8,1.9.61,3.94C25,21.19,22.29,30,22.08,38.36c0,1.46,1.38,1.51,1.42,0,.2-7.92,3.43-16.35,8.64-25.09,1.27-2.14,2.9-3.53,5.14-2.23a2.24,2.24,0,0,1,.37,3.26c-5.58,7.79-7.43,17-7.9,26.5-.07,1.46,1.7,1.57,1.77.1.46-9.31,2.64-18,7.89-25.29,1.13-1.57,2.24-1.81,3.71-1,1.25.71,1.89,2.39.67,4.26C39,26.35,37.3,33.64,36.61,43c-.22,1.56,1.54,1.65,1.55.08,1-7.79,2.47-13.75,5.6-19.72a2,2,0,0,1,1.43-1.12c1.45-.12,2.19.9,2.69,2a2.17,2.17,0,0,1-.4,2.06c-3.85,6.2-4.35,13.9-4.16,20.91C43.79,64.69,42,71.38,39.94,75a39.1,39.1,0,0,1-3.23,4.48,14.65,14.65,0,0,0-2.61,6.33c-.27,1.45-.53,2.68-.62,3.82-.12,1.59-.4,2.84-3.06,2.84H16c-2,0-3.32-1.28-2.9-3.89l1.61-10c.22-1.31.54-1.68,2-1.07A40.26,40.26,0,0,0,21.66,79c1.42.38,1.86-.85.47-1.33-6.12-2-12.09-6-13.75-12.1C7.54,62.49,7.44,59,6,55.08,3.77,49.19,1.75,40.63,1.68,37,1.6,32.8,5.41,33.25,7,35.82A22.24,22.24,0,0,1,9.15,42c2,7.74,7,10.67,12.66,15.13,2.36,1.88,3.8,3.45,3.9,8,0,1.53,1.57,1.48,1.63,0,.22-4.92-1.58-7.56-4.16-9.61-2.37-1.89-5.21-3.54-8.29-7-1.06-1.18-1-2-.91-3.28.43-18,5.91-27.42,10.4-34C25.75,9.12,27.46,7.55,29.68,8.17Z"/></svg>