<svg id="Layer_1" data-name="Layer 1" xmlns="http://www.w3.org/2000/svg" viewBox="0 0 100 100"><path d="M83.43,20.24l7.23,13.33L54.48,55.38,51,52.62s6.29-7.14,10.67-10.38,13.62-6,13.62-6,6.66-1.91,9.61-5.43l-6-12.09Z"/><path d="M21.15,18.72l-6,12.09c3,3.52,9.61,5.43,9.61,5.43S34,39,38.38,42.24,48.91,52.57,48.91,52.57l-3.39,2.81L9.34,33.57l7.23-13.33Z"/><path d="M15.72,83.76l-1.24-2,3.43-7.14s18.28-9.43,17.14-14c0,0-1.24-3-3.81-1.53l-7.71,4.67,2.95-5.52,6.19-3.53,15.42,9.43Z"/><path d="M23.91,64.89l8.19-4.67c1-.47,2.57,1.05,2.57,1.05l-9.43,5.81Z"/><path d="M49.24,63.47,1.15,33.57,8.77,18.24l3.23-2L4.1,32.72,49.33,60.14Z"/><path d="M40,40.45c-2.57-1.81-8.76-4.56-13.55-6-6.77-2-8.67-4.7-8.67-4.7l6-11.74c6.77,3.7,9.57,3.16,17.88,7.77S50,36,50,36s.09-5.6,8.4-10.2,11.11-4.07,17.88-7.77l6,11.74s-1.9,2.71-8.67,4.7c-4.79,1.4-11,4.15-13.55,6s-8.57,6.14-10,9.84c-1.45-3.7-7.59-8.13-10-9.84Z"/><path d="M84.28,83.76,51.91,64.14l15.42-9.42,6.19,3.52,3,5.52-7.71-4.67C66.19,57.57,65,60.62,65,60.62c-1.14,4.57,17.14,14,17.14,14l3.43,7.14Z"/><path d="M76.09,64.89l-1.33,2.19-9.43-5.81s1.52-1.52,2.57-1.05Z"/><path d="M50.76,63.47l-.09-3.33L95.9,32.71,88,16.24l3.24,2,7.62,15.33Z"/></svg>