<svg id="Layer_1" data-name="Layer 1" xmlns="http://www.w3.org/2000/svg" viewBox="0 0 100 100"><path d="M8.09,67.23a4.34,4.34,0,0,1-3.3-2.92,4.44,4.44,0,0,1,.51-3.72,7.17,7.17,0,0,0,1.79.26H7.8a6.59,6.59,0,0,0,3.55-1.54A4.35,4.35,0,0,1,12.83,65l-.05.08h0a4.09,4.09,0,0,1-2.39,2,4.18,4.18,0,0,1-2.3.15Zm2.22-10.17a4.41,4.41,0,0,0,1.15-3.41A4.52,4.52,0,0,0,10.18,51,6.66,6.66,0,0,1,7,51.82a4.21,4.21,0,0,1-.71,0,6.48,6.48,0,0,1-2.38-.74,4.34,4.34,0,0,0,1.33,7.08,4.33,4.33,0,0,0,5-1.1ZM15,24a4.49,4.49,0,0,0,6.2-.33,4.18,4.18,0,0,0,1-2.7A6.58,6.58,0,0,1,18,16.34,4.37,4.37,0,0,0,14.88,24ZM7.63,40.41a4.38,4.38,0,0,0,5.46-5.73h-.45a6.53,6.53,0,0,1-3.34-.89,5.25,5.25,0,0,1-1.86-1.61,4.32,4.32,0,0,0-1.67,7,4,4,0,0,0,1.84,1.2Zm2.82-8.61A4.35,4.35,0,0,0,17,27.36a6.95,6.95,0,0,1-5.06-3.6,4.37,4.37,0,0,0-3.07,6.53,4.22,4.22,0,0,0,1.6,1.51ZM4.55,48.64h0a4.28,4.28,0,0,0,2.1.79,4.38,4.38,0,0,0,4.08-6.73A6.16,6.16,0,0,1,8.93,43a6.16,6.16,0,0,1-4.25-1.52,4.42,4.42,0,0,0-2,3.16,4.37,4.37,0,0,0,1.84,4ZM21.06,17.23a4.41,4.41,0,0,0,6.16,1,4.21,4.21,0,0,0,1.61-2.4,6.89,6.89,0,0,1-2.55-2.93,6.9,6.9,0,0,1-.57-2.45,4.31,4.31,0,0,0-3.66.66,4.44,4.44,0,0,0-1.77,4.07,4.26,4.26,0,0,0,.78,2.06ZM89.74,32.07a4.46,4.46,0,0,0-2.82,5.54,4.27,4.27,0,0,0,1.77,2.3,6.67,6.67,0,0,1,6.07-1.34,4.19,4.19,0,0,0,.5-3.69A4.33,4.33,0,0,0,92,32a4.09,4.09,0,0,0-2.22.11ZM30.64,14.18a4.38,4.38,0,0,0,3.58,0,4.52,4.52,0,0,0,2.13-2A6.57,6.57,0,0,1,34.41,6.3a4.34,4.34,0,0,0-3.74-.14,4.39,4.39,0,0,0-2.58,3.6A4.32,4.32,0,0,0,28.42,12a4.61,4.61,0,0,0,2.22,2.2ZM92.48,40.72a4.35,4.35,0,0,0-2.61,7.44,6.69,6.69,0,0,1,3.8-.76,6.32,6.32,0,0,1,2.39.76,4.36,4.36,0,0,0-1.34-7.09,4.21,4.21,0,0,0-2.24-.35ZM16.74,72.54a4.33,4.33,0,0,0-2.49-5.43,6.44,6.44,0,0,1-3.15,2.25,6.51,6.51,0,0,1-2,.32H8.6a4.35,4.35,0,0,0,.28,3.74,4.47,4.47,0,0,0,6,1.62,4.29,4.29,0,0,0,1.92-2.5ZM83.26,26.66a4.29,4.29,0,0,0,2.53,5.4,6.58,6.58,0,0,1,5.68-2.53,4.35,4.35,0,0,0-.29-3.74,4.5,4.5,0,0,0-6-1.59,4.3,4.3,0,0,0-1.93,2.46ZM71.06,15.11A4.32,4.32,0,0,0,75.63,19a7.16,7.16,0,0,1,2-3.34,7.06,7.06,0,0,1,2.1-1.31,4.32,4.32,0,0,0-6.13-3.73,4.78,4.78,0,0,0-1.74,1.41,4.4,4.4,0,0,0-.76,3Zm6.72,5.13a4.31,4.31,0,0,0,1,3.4A4.42,4.42,0,0,0,81.4,25a6.64,6.64,0,0,1,5-3.69,4.35,4.35,0,0,0-5.26-4.95,4.25,4.25,0,0,0-2,1.05,4.4,4.4,0,0,0-1.41,2.8ZM89.61,67.36a4.39,4.39,0,0,0-6,1.64,4.21,4.21,0,0,0-.51,2.82,6.86,6.86,0,0,1,3.53,1.64,7.12,7.12,0,0,1,1.51,2,4.37,4.37,0,0,0,1.46-8.1ZM79,81.94a4.37,4.37,0,0,0-7.76,1.42,6.67,6.67,0,0,1,3.16,5.38A4.34,4.34,0,0,0,78,88.09,4.47,4.47,0,0,0,79.78,84,4.36,4.36,0,0,0,79,81.94ZM69.39,85.1a4.35,4.35,0,0,0-3.6,0,4.11,4.11,0,0,0-2.1,2,6.72,6.72,0,0,1,1.89,3.42,6.52,6.52,0,0,1,0,2.49,4.4,4.4,0,1,0,3.81-7.93ZM61.6,88.3a4.42,4.42,0,0,0-6,.76,6.56,6.56,0,0,1,.67,6.24,4.39,4.39,0,0,0,3.64.89,4.31,4.31,0,0,0,3.27-3A4.19,4.19,0,0,0,63.29,91,4.28,4.28,0,0,0,61.6,88.3Zm4.2-74.12a4.33,4.33,0,0,0,2.88.22A6.75,6.75,0,0,1,71.78,9a4.18,4.18,0,0,0-2.41-2.86,4.34,4.34,0,0,0-4.4.51A4.27,4.27,0,0,0,63.56,8.4a4.17,4.17,0,0,0-.14,3.16,4.43,4.43,0,0,0,2.38,2.62ZM95.51,50.55a4.37,4.37,0,0,0-6.24,5.93,6.46,6.46,0,0,1,3.89,0,7.22,7.22,0,0,1,2.21,1.21,4.3,4.3,0,0,0,1.95-3.15,4.35,4.35,0,0,0-1.81-4Zm-3.07,8.21h0A4.41,4.41,0,0,0,87,64.53a6.64,6.64,0,0,1,3.8.86A7,7,0,0,1,92.61,67a4.33,4.33,0,0,0,1.71-7,4.1,4.1,0,0,0-1.88-1.27ZM85.07,75.23h0a4.49,4.49,0,0,0-6.22.33,4.26,4.26,0,0,0-1,2.68A6.62,6.62,0,0,1,82,82.85a4.39,4.39,0,0,0,3.46-1.39,4.49,4.49,0,0,0,.9-4.33,4.28,4.28,0,0,0-1.32-1.9ZM53.73,42.51C52,47.25,55,52.69,55,52.76a1.17,1.17,0,0,1,0,1.17c0,.06-.09.08-.15.15v12a1.18,1.18,0,0,1-2.34,0V54.47H50.84V66.05h0a1.18,1.18,0,0,1-2.35,0V54.47H46.8V66.05h0a1.18,1.18,0,0,1-1.18,1.16,1.17,1.17,0,0,1-.83-.34,1.2,1.2,0,0,1-.33-.82V54.21a.86.86,0,0,1-.29-.28,1.22,1.22,0,0,1,0-1.17c0-.06,3-5.49,1.31-10.25C44,38.3,43,35,44.28,30.68a7.66,7.66,0,0,1-2.41-5.58A7.78,7.78,0,0,1,48,17.52a9.69,9.69,0,0,0-3.67-7.36A4.29,4.29,0,0,1,42,11.61a4.4,4.4,0,1,1,3.38-5.26,4.66,4.66,0,0,1,0,1.58,11.4,11.4,0,0,1,3.77,4.46,11.81,11.81,0,0,1,5.58-6.07,4.1,4.1,0,0,1,1-2A4.46,4.46,0,0,1,59.94,3a4.38,4.38,0,0,1,3,2.3,6.4,6.4,0,0,0-1.44,2.05A6.59,6.59,0,0,0,61,11.18a4.32,4.32,0,0,1-2.89.38,4.27,4.27,0,0,1-2.87-2.11A3.32,3.32,0,0,1,55,8.91a10.07,10.07,0,0,0-4.52,8.54,7.74,7.74,0,0,1,6.92,7.65A7.61,7.61,0,0,1,55,30.68c1.25,4.33.3,7.68-1.25,11.83Zm-1.06-11H46.51c-1,3.29-.42,5.84,1.19,10.24,1.45,4,.28,8.17-.64,10.45h5.12c-.92-2.29-2.1-6.46-.64-10.45,1.64-4.4,2.13-7,1.19-10.24Zm2.26-6.38c0-2.83-2.31-5.65-5.1-5.47a10.34,10.34,0,0,0-1.26.19h0a5.18,5.18,0,0,0-4.42,5.26,5.33,5.33,0,0,0,1.89,4h7a5.28,5.28,0,0,0,1.93-4ZM22.28,79a4.18,4.18,0,0,0-1.05-3.38,4.27,4.27,0,0,0-2.57-1.4A6.64,6.64,0,0,1,16,77a6.86,6.86,0,0,1-2.36.83,4.31,4.31,0,0,0,5.26,4.92,4.18,4.18,0,0,0,2-1A4.39,4.39,0,0,0,22.28,79Zm12,6.06a4.41,4.41,0,0,0-2.91-.24,6.58,6.58,0,0,1-1.3,3.7,6,6,0,0,1-1.84,1.71A4.31,4.31,0,0,0,30.6,93a4.39,4.39,0,0,0,4.4-.5,4.3,4.3,0,0,0,1.41-1.72A4.43,4.43,0,0,0,34.24,85ZM29,84.09a4.32,4.32,0,0,0-4.56-3.93,6.62,6.62,0,0,1-2,3.32,6.45,6.45,0,0,1-2.11,1.29,4.35,4.35,0,0,0,1.76,3.3,4.4,4.4,0,0,0,4.4.45,4.57,4.57,0,0,0,1.73-1.41,4.17,4.17,0,0,0,.77-3Zm13,3.46a4.23,4.23,0,0,0-2.88.37,6.78,6.78,0,0,1-.45,3.9,6.65,6.65,0,0,1-1.44,2.11,4.27,4.27,0,0,0,3,2.28,4.43,4.43,0,0,0,4.2-1.38,4.19,4.19,0,0,0,1-2,4.47,4.47,0,0,0-.48-3.16A4.3,4.3,0,0,0,42,87.55Zm11.29,2.26h0a4.5,4.5,0,0,0-5.9-.37,6.7,6.7,0,0,1,.29,3.76,6.4,6.4,0,0,1-1,2.33,4.38,4.38,0,0,0,7.76-2.76,4.26,4.26,0,0,0-1.11-2.91Z"/></svg>