<svg width="319" height="332" viewBox="0 0 319 332" fill="none" xmlns="http://www.w3.org/2000/svg">
<g filter="url(#filter0_d_4_125)">
<path d="M145.332 48.4604C151.811 47.318 157.989 51.644 159.132 58.1229L161.2 69.8539C162.343 76.3328 158.017 82.511 151.538 83.6534C145.059 84.7958 138.881 80.4698 137.738 73.9909L135.67 62.2599C134.527 55.781 138.854 49.6028 145.332 48.4604Z" fill="white"/>
<path d="M180.497 247.888C186.976 246.745 193.154 251.071 194.296 257.55L196.365 269.281C197.507 275.76 193.181 281.938 186.702 283.081C180.223 284.223 174.045 279.897 172.903 273.418L170.834 261.687C169.692 255.208 174.018 249.03 180.497 247.888Z" fill="white"/>
<path d="M273.665 158.885C280.144 157.743 284.47 151.564 283.327 145.086C282.185 138.607 276.007 134.281 269.528 135.423L257.797 137.492C251.318 138.634 246.992 144.812 248.134 151.291C249.277 157.77 255.455 162.096 261.934 160.954L273.665 158.885Z" fill="white"/>
<path d="M83.9002 180.25C85.0426 186.729 80.7165 192.907 74.2377 194.049L62.5067 196.118C56.0278 197.26 49.8496 192.934 48.7072 186.455C47.5648 179.977 51.8908 173.798 58.3697 172.656L70.1007 170.587C76.5796 169.445 82.7578 173.771 83.9002 180.25Z" fill="white"/>
<path d="M237.247 230.188L247.004 237.02C252.393 240.794 259.821 239.484 263.595 234.095C267.368 228.706 266.058 221.278 260.669 217.505L250.912 210.672C245.523 206.899 238.095 208.209 234.321 213.598C230.548 218.987 231.858 226.414 237.247 230.188Z" fill="white"/>
<path d="M97.7132 117.943C93.9398 123.333 86.5121 124.642 81.1231 120.869L71.3653 114.036C65.9763 110.263 64.6666 102.835 68.44 97.4462C72.2135 92.0571 79.6412 90.7474 85.0302 94.5209L94.7879 101.353C100.177 105.127 101.487 112.554 97.7132 117.943Z" fill="white"/>
<path d="M94.7677 246.758C90.9942 252.147 92.3039 259.574 97.693 263.348C103.082 267.121 110.51 265.812 114.283 260.423L121.116 250.665C124.889 245.276 123.579 237.848 118.19 234.075C112.801 230.301 105.374 231.611 101.6 237L94.7677 246.758Z" fill="white"/>
<path d="M213.844 97.4665C208.455 93.693 207.146 86.2653 210.919 80.8763L217.752 71.1186C221.525 65.7295 228.953 64.4198 234.342 68.1933C239.731 71.9667 241.04 79.3944 237.267 84.7834L230.435 94.5412C226.661 99.9302 219.233 101.24 213.844 97.4665Z" fill="white"/>
<path fill-rule="evenodd" clip-rule="evenodd" d="M154.641 101.25C119.007 107.533 95.2135 141.514 101.497 177.147C107.78 212.781 141.76 236.574 177.394 230.291C213.028 224.008 236.821 190.028 230.538 154.394C224.255 118.76 190.274 94.9668 154.641 101.25ZM124.959 173.01C120.96 150.334 136.102 128.71 158.778 124.712C181.454 120.714 203.077 135.855 207.076 158.531C211.074 181.207 195.933 202.831 173.257 206.829C150.581 210.827 128.957 195.686 124.959 173.01Z" fill="white"/>
</g>
<defs>
<filter id="filter0_d_4_125" x="-3.57678" y="0.176422" width="339.188" height="339.188" filterUnits="userSpaceOnUse" color-interpolation-filters="sRGB">
<feFlood flood-opacity="0" result="BackgroundImageFix"/>
<feColorMatrix in="SourceAlpha" type="matrix" values="0 0 0 0 0 0 0 0 0 0 0 0 0 0 0 0 0 0 127 0" result="hardAlpha"/>
<feOffset dy="4"/>
<feGaussianBlur stdDeviation="2"/>
<feComposite in2="hardAlpha" operator="out"/>
<feColorMatrix type="matrix" values="0 0 0 0 0 0 0 0 0 0 0 0 0 0 0 0 0 0 0.25 0"/>
<feBlend mode="normal" in2="BackgroundImageFix" result="effect1_dropShadow_4_125"/>
<feBlend mode="normal" in="SourceGraphic" in2="effect1_dropShadow_4_125" result="shape"/>
</filter>
</defs>
</svg>
