<svg width="265" height="265" viewBox="0 0 265 265" fill="none" xmlns="http://www.w3.org/2000/svg">
<path d="M120.022 72.2062C121.204 68.7363 120.283 64.8962 117.658 62.3387C115.032 59.7811 111.169 58.9624 107.731 60.2348C77.7202 71.3435 58.9947 102.616 64.7496 135.254C67.679 151.867 76.4674 166.002 88.5999 175.875C92.6693 179.187 98.6529 178.573 101.965 174.504C105.276 170.434 104.662 164.451 100.593 161.139C91.8664 154.037 85.568 143.904 83.4609 131.954C80.4357 114.797 86.8311 98.1474 98.9332 87.3276C99.0354 90.005 99.3206 92.7056 99.7983 95.4148C105.478 127.625 136.193 149.132 168.403 143.452C171.112 142.975 173.747 142.319 176.297 141.5C175.342 143.887 174.2 146.192 172.886 148.392C170.194 152.896 171.664 158.728 176.168 161.42C180.671 164.111 186.504 162.642 189.196 158.138C195.242 148.018 198.681 136.271 198.748 123.966C198.768 120.3 196.678 116.95 193.376 115.357C190.075 113.765 186.152 114.213 183.295 116.51C178.199 120.608 172.028 123.52 165.104 124.741C143.228 128.598 122.367 113.991 118.51 92.1155C117.289 85.1914 117.914 78.3966 120.022 72.2062Z" fill="white"/>
<path d="M211.624 196.105C216.791 195.194 220.241 190.266 219.33 185.099C218.419 179.932 213.492 176.482 208.325 177.393L77.3453 200.489C72.1783 201.4 68.7282 206.327 69.6393 211.494C70.5504 216.661 75.4777 220.111 80.6447 219.2L211.624 196.105Z" fill="white"/>
</svg>
