<svg width="223" height="224" viewBox="0 0 223 224" fill="none" xmlns="http://www.w3.org/2000/svg">
<path d="M106.746 39.554C105.979 35.2028 101.83 32.2975 97.4787 33.0647C93.1276 33.8319 90.2222 37.9812 90.9894 42.3323L92.3786 50.2108C93.1458 54.562 97.2951 57.4673 101.646 56.7001C105.997 55.9328 108.903 51.7836 108.136 47.4324L106.746 39.554Z" fill="white"/>
<path d="M124.806 141.974C124.039 137.623 119.889 134.717 115.538 135.485C111.187 136.252 108.282 140.401 109.049 144.752L112.641 165.124L109.927 163.224C106.307 160.689 101.319 161.569 98.7847 165.188C96.2505 168.808 97.1301 173.796 100.749 176.33L119.285 189.309C122.904 191.843 127.892 190.963 130.426 187.344L143.405 168.809C145.939 165.19 145.06 160.201 141.44 157.667C137.821 155.133 132.833 156.012 130.299 159.632L128.398 162.346L124.806 141.974Z" fill="white"/>
<path d="M183.666 107.225C188.017 106.458 190.922 102.309 190.155 97.9575C189.388 93.6063 185.239 90.701 180.888 91.4682L173.009 92.8574C168.658 93.6246 165.753 97.7739 166.52 102.125C167.287 106.476 171.436 109.382 175.787 108.614L183.666 107.225Z" fill="white"/>
<path d="M56.2213 121.574C56.9886 125.925 54.0832 130.074 49.7321 130.841L41.8536 132.23C37.5024 132.998 33.3532 130.092 32.5859 125.741C31.8187 121.39 34.7241 117.241 39.0752 116.474L46.9537 115.084C51.3048 114.317 55.4541 117.222 56.2213 121.574Z" fill="white"/>
<path d="M174.938 146.594L168.385 142.005C164.766 139.471 159.777 140.35 157.243 143.97C154.709 147.589 155.588 152.577 159.208 155.111L165.761 159.7C169.38 162.234 174.369 161.355 176.903 157.735C179.437 154.116 178.557 149.128 174.938 146.594Z" fill="white"/>
<path d="M65.498 79.729C62.9638 83.3483 57.9755 84.2278 54.3562 81.6936L47.803 77.105C44.1838 74.5708 43.3042 69.5824 45.8384 65.9632C48.3726 62.344 53.361 61.4644 56.9802 63.9986L63.5334 68.5872C67.1527 71.1214 68.0323 76.1098 65.498 79.729Z" fill="white"/>
<path d="M63.5199 166.24C60.9856 169.859 61.8652 174.847 65.4845 177.381C69.1037 179.916 74.0921 179.036 76.6263 175.417L81.2149 168.864C83.7491 165.244 82.8695 160.256 79.2503 157.722C75.631 155.188 70.6427 156.067 68.1085 159.686L63.5199 166.24Z" fill="white"/>
<path d="M143.491 65.9768C139.872 63.4426 138.992 58.4542 141.526 54.835L146.115 48.2818C148.649 44.6625 153.637 43.7829 157.257 46.3172C160.876 48.8514 161.755 53.8397 159.221 57.459L154.633 64.0122C152.098 67.6314 147.11 68.511 143.491 65.9768Z" fill="white"/>
<path d="M89.0871 128.82C81.8935 119.38 81.2748 106.014 88.4343 95.7892C97.304 83.1218 114.763 80.0433 127.431 88.9131C137.655 96.0725 141.646 108.844 138.114 120.175C136.8 124.393 139.153 128.878 143.372 130.193C147.59 131.507 152.075 129.154 153.39 124.935C158.933 107.15 152.701 87.0751 136.608 75.8066C116.702 61.8684 89.266 66.7061 75.3278 86.6119C64.0594 102.705 65.0695 123.7 76.3612 138.518C79.0392 142.032 84.059 142.71 87.5731 140.032C91.0873 137.354 91.7651 132.334 89.0871 128.82Z" fill="white"/>
</svg>
