<svg width="188" height="161" viewBox="0 0 188 161" fill="none" xmlns="http://www.w3.org/2000/svg">
<path fill-rule="evenodd" clip-rule="evenodd" d="M82.2059 44.8527C84.0601 46.6587 84.7099 49.3703 83.8756 51.8205C82.1173 56.9844 81.5959 62.6524 82.6137 68.4246C85.8305 86.6677 103.227 98.849 121.47 95.6322C127.242 94.6144 132.39 92.186 136.641 88.7675C138.658 87.1455 141.429 86.8287 143.76 87.9534C146.091 89.078 147.568 91.4436 147.553 94.0319C147.415 119.471 129.144 141.962 103.199 146.537C74.0098 151.684 46.1751 132.193 41.0283 103.004C36.4535 77.0595 51.3392 52.198 75.1966 43.3671C77.624 42.4686 80.3517 43.0467 82.2059 44.8527ZM68.6815 62.287C57.6098 71.19 51.6005 85.6986 54.2412 100.675C58.1013 122.566 78.9773 137.184 100.869 133.324C115.845 130.683 127.423 120.074 132.003 106.625C129.384 107.595 126.644 108.344 123.8 108.845C98.2597 113.349 73.9043 96.2947 69.4009 70.7544C68.8995 67.9107 68.6656 65.0793 68.6815 62.287Z" fill="white"/>
</svg>
