<svg width="372" height="372" viewBox="0 0 372 372" fill="none" xmlns="http://www.w3.org/2000/svg">
<path d="M165.177 67.6716C172.429 66.3929 179.344 71.2352 180.623 78.4871L182.938 91.6178C184.217 98.8698 179.375 105.785 172.123 107.064C164.871 108.343 157.956 103.5 156.677 96.2485L154.362 83.1177C153.083 75.8658 157.925 68.9503 165.177 67.6716Z" fill="#00B8D9"/>
<path d="M319.638 175.826C320.917 183.078 316.074 189.994 308.822 191.272L295.692 193.588C288.44 194.866 281.524 190.024 280.246 182.772C278.967 175.52 283.809 168.605 291.061 167.326L304.192 165.011C311.444 163.732 318.359 168.574 319.638 175.826Z" fill="#00B8D9"/>
<path d="M85.5993 230.633C92.8512 229.354 97.6935 222.438 96.4148 215.186C95.1361 207.935 88.2206 203.092 80.9687 204.371L67.8379 206.686C60.586 207.965 55.7438 214.88 57.0225 222.132C58.3012 229.384 65.2166 234.227 72.4686 232.948L85.5993 230.633Z" fill="#00B8D9"/>
<path d="M111.876 145.446C107.652 151.478 99.3384 152.944 93.3063 148.72L82.3843 141.072C76.3522 136.848 74.8862 128.535 79.1099 122.502C83.3336 116.47 91.6476 115.004 97.6796 119.228L108.602 126.876C114.634 131.1 116.1 139.413 111.876 145.446Z" fill="#00B8D9"/>
<path d="M246.237 93.0334L238.59 103.955C234.366 109.987 235.832 118.301 241.864 122.525C247.896 126.749 256.21 125.283 260.434 119.251L268.081 108.329C272.305 102.297 270.839 93.9828 264.807 89.759C258.775 85.5354 250.461 87.0013 246.237 93.0334Z" fill="#00B8D9"/>
<path d="M307.268 259.241C308.547 266.493 303.705 273.409 296.453 274.688L112.622 307.102C105.37 308.381 98.4546 303.538 97.1759 296.286C95.8972 289.034 100.739 282.119 107.991 280.84L291.822 248.426C299.074 247.147 305.989 251.99 307.268 259.241Z" fill="#00B8D9"/>
<path d="M151.191 227.263C139.202 211.53 138.171 189.254 150.103 172.212C164.886 151.1 193.985 145.969 215.097 160.752C232.138 172.685 238.789 193.971 232.903 212.855C230.712 219.885 234.635 227.361 241.665 229.552C248.696 231.743 256.171 227.82 258.362 220.789C267.6 191.147 257.214 157.689 230.392 138.908C197.216 115.678 151.489 123.741 128.259 156.917C109.478 183.739 111.162 218.731 129.981 243.426C134.445 249.283 142.811 250.413 148.668 245.95C154.525 241.486 155.655 233.12 151.191 227.263Z" fill="#00B8D9"/>
</svg>
